<svg xmlns="http://www.w3.org/2000/svg" viewBox="0 0 128 128"><circle cx="64" cy="64" r="64" fill="#76b900"/><path fill="#fff" d="M54.232 53.755v-4.577q.678-.05 1.357-.057c12.55-.397 20.778 10.797 20.778 10.797S67.49 72.24 57.967 72.24c-1.274 0-2.519-.198-3.706-.592V57.742c4.89.592 5.878 2.742 8.79 7.632l6.528-5.485s-4.774-6.247-12.8-6.247q-1.276-.028-2.547.112m0-15.153v6.842l1.357-.086c17.44-.592 28.832 14.304 28.832 14.304S71.365 75.546 57.765 75.546a20.7 20.7 0 0 1-3.504-.31v4.24c.96.112 1.952.198 2.912.198 12.662 0 21.824-6.473 30.698-14.105 1.468 1.187 7.488 4.041 8.736 5.286-8.426 7.066-28.07 12.75-39.21 12.75-1.072 0-2.09-.059-3.107-.17v5.964h48.109V38.603zm0 33.044v3.619C42.53 73.172 39.28 60.993 39.28 60.993s5.625-6.22 14.953-7.239v3.959h-.025c-4.89-.595-8.736 3.984-8.736 3.984s2.176 7.718 8.764 9.952M33.458 60.48s6.925-10.23 20.8-11.306v-3.73c-15.37 1.244-28.66 14.246-28.66 14.246s7.52 21.766 28.634 23.743v-3.958C38.744 77.555 33.458 60.48 33.458 60.48"/></svg>
