<svg xmlns="http://www.w3.org/2000/svg" fill="none" viewBox="0 0 128 128" xmlns:xlink="http://www.w3.org/1999/xlink"><circle cx="64" cy="64" r="64" fill="#fff"/><path fill="url(#a)" d="M79.27 60.678c-1.92 1.703-5.05 2.628-9.536 2.628H49.67v30.572h8.39v-22.62h12.727q6.003.006 10.474-2.176h.003q4.55-2.276 7.117-6.39c1.715-2.756 2.56-6.017 2.56-9.745 0-3.712-.835-7.488-2.56-10.259q-2.567-4.118-7.117-6.304-4.474-2.269-10.477-2.262h-21.12v7.952h20.067c4.49 0 7.616.924 9.536 2.63 1.901 1.69 2.928 4.72 2.928 8.243 0 3.424-1.004 5.965-2.928 7.731"/><path fill="url(#b)" fill-rule="evenodd" d="M128 64c0 35.347-28.653 64-64 64S0 99.347 0 64 28.653 0 64 0s64 28.653 64 64m-8.384 0c0 30.717-24.9 55.616-55.616 55.616S8.384 94.716 8.384 64 33.284 8.384 64 8.384s55.616 24.9 55.616 55.616" clip-rule="evenodd"/><defs><linearGradient id="a" x1="92.337" x2="92.267" y1="10.303" y2="46.293" gradientTransform="scale(3.2)" gradientUnits="userSpaceOnUse"><stop stop-color="#ff2e72"/><stop offset=".935" stop-color="#4a125e"/></linearGradient><linearGradient id="b" x1="92.337" x2="92.267" y1="10.303" y2="46.293" gradientTransform="scale(3.2)" gradientUnits="userSpaceOnUse"><stop stop-color="#ff2e72"/><stop offset=".935" stop-color="#4a125e"/></linearGradient></defs></svg>
