<svg xmlns="http://www.w3.org/2000/svg" viewBox="0 0 128 128" xmlns:xlink="http://www.w3.org/1999/xlink"><circle cx="64" cy="64" r="64" fill="#f0f3fa"/><path fill="url(#a)" d="M100.663 76.846A38.86 38.86 0 0 1 86.491 95.68L64 64z"/><path fill="url(#b)" d="M77.669 100.366a38.86 38.86 0 0 1-20.892 1.828L64 64z"/><path fill="url(#c)" d="M102.857 64c0 4.383-.742 8.734-2.194 12.869L64 64z"/><path fill="url(#d)" d="M88.48 33.829a38.86 38.86 0 0 1 11.566 15.68L64 64z"/><path fill="url(#e)" d="M56 25.966a38.86 38.86 0 0 1 19.2.823L64 64z"/><path fill="url(#f)" d="M32.869 87.269a38.9 38.9 0 0 0 8.068 8L64 64z"/><path fill="#25e2fc" d="M50.446 100.411a39 39 0 0 0 7.954 2.058L64 64z"/><path fill="url(#g)" d="M39.017 34.24A38.86 38.86 0 0 1 56.8 25.829L64 64z"/><path fill="url(#h)" d="M33.44 40a39 39 0 0 1 5.6-5.783L64 64z"/><path fill="url(#i)" d="M25.143 64a38.9 38.9 0 0 1 1.988-12.297L64 64z"/><path fill="url(#j)" d="M26.469 74.057a39 39 0 0 1-1.326-10.011L64 64z"/><defs><linearGradient id="a" x1="67.634" x2="90.72" y1="66.423" y2="88.297" gradientUnits="userSpaceOnUse"><stop stop-color="#0096fe"/><stop offset="1" stop-color="#00d6fb"/></linearGradient><linearGradient id="b" x1="64" x2="64" y1="73.714" y2="102.857" gradientUnits="userSpaceOnUse"><stop stop-color="#f9ae8c"/><stop offset="1" stop-color="#ed66d6"/></linearGradient><linearGradient id="c" x1="68.869" x2="101.646" y1="66.423" y2="68.869" gradientUnits="userSpaceOnUse"><stop stop-color="#9fabff"/><stop offset="1" stop-color="#a8e5e7"/></linearGradient><linearGradient id="d" x1="91.931" x2="67.634" y1="43.36" y2="62.789" gradientUnits="userSpaceOnUse"><stop stop-color="#ee70cc"/><stop offset="1" stop-color="#f9ac8d"/></linearGradient><linearGradient id="e" x1="65.6" x2="65.6" y1="25.143" y2="64" gradientUnits="userSpaceOnUse"><stop stop-color="#a8e3e7"/><stop offset="1" stop-color="#a099ff"/></linearGradient><linearGradient id="f" x1="60.366" x2="38.491" y1="68.869" y2="90.72" gradientUnits="userSpaceOnUse"><stop stop-color="#cbacf1"/><stop offset="1" stop-color="#267cfc"/></linearGradient><linearGradient id="g" x1="49.44" x2="61.577" y1="31.223" y2="62.789" gradientUnits="userSpaceOnUse"><stop stop-color="#18d8fb"/><stop offset="1" stop-color="#bdb2f5"/></linearGradient><linearGradient id="h" x1="38.491" x2="60.366" y1="38.491" y2="61.577" gradientUnits="userSpaceOnUse"><stop stop-color="#1c7afd"/><stop offset="1" stop-color="#daacdd"/></linearGradient><linearGradient id="i" x1="25.143" x2="64" y1="57.851" y2="57.851" gradientUnits="userSpaceOnUse"><stop stop-color="#ffc44f"/><stop offset="1" stop-color="#ffdd93"/></linearGradient><linearGradient id="j" x1="60.366" x2="31.223" y1="65.211" y2="72.503" gradientUnits="userSpaceOnUse"><stop stop-color="#af65fc"/><stop offset="1" stop-color="#d083fb"/></linearGradient></defs></svg>
