<svg xmlns="http://www.w3.org/2000/svg" viewBox="0 0 128 128"><circle cx="64" cy="64" r="64" fill="#042d48"/><path fill="#f4f6f7" d="M61.916 19.845q8.598-.047 5.755 7.938a4.34 4.34 0 0 1-1.786 1.19 167 167 0 0 0-.397 16.273h2.779q.1 7.743-.199 15.48-1.611 1.41-2.778 3.175a287 287 0 0 1-.199-15.082h-6.35v-3.573h3.175q.1-7.94-.198-15.876-6.034-4.878.198-9.525"/><path fill="#0f344e" d="M62.71 23.417q3.604-.332 1.588 2.58-2.804.049-1.588-2.58"/><path fill="#f1f3f5" d="M34.927 29.767q7.632-.801 6.549 6.748a6.3 6.3 0 0 1-2.183 2.381 90 90 0 0 0-.397 11.907h23.02q.1 6.355-.198 12.7a20 20 0 0 0-2.779-2.777 51 51 0 0 1-.198-6.35H56.36a12.4 12.4 0 0 1-.397 4.365 40 40 0 0 1-2.977-1.19 13 13 0 0 1-.198-3.176h-2.382v2.382h-3.572v-2.382h-11.51q.198-7.75-.397-15.479-3.73-2.112-2.58-6.35a8.7 8.7 0 0 1 2.58-2.779"/><path fill="#f9fafa" d="M46.834 29.767h9.526v9.13h-9.526z"/><path fill="#f4f6f7" d="M71.045 29.767h9.525v9.526h-9.525z"/><path fill="#f9fafb" d="M92.08 38.896a144 144 0 0 0-.396 15.082 78 78 0 0 0-11.114.397v2.382H77V40.484h3.572v10.32h7.938V38.895q-2.57-.488-2.977-3.175-.02-8.38 7.74-4.961 2.489 2.735.992 6.152-.63 1.52-2.183 1.984"/><path fill="#1d3d56" d="M36.118 32.943q2.968-.117 1.984 2.58-3.428.676-1.984-2.58"/><path fill="#1b3b55" d="M89.302 32.943q2.688.114 1.588 2.58-3.667.522-1.588-2.58"/><path fill="#607a8b" d="M46.834 29.767a62 62 0 0 1 9.923-.396v9.922q-5.07.194-9.923-.397h9.526v-9.129z"/><path fill="#f7f8f9" d="M46.834 40.484h3.572v4.762h2.382v-4.762h3.572v8.335h-9.526z"/><path fill="#fefefe" d="M71.045 40.484h3.175V57.55a8.3 8.3 0 0 0-2.977 1.191 420 420 0 0 1-.198-18.257"/><path fill="#97a7b2" d="M71.045 40.484q1.66-.582 3.572-.397a192 192 0 0 1-.397 17.463V40.484z"/><path fill="#9faeb9" d="M92.08 38.896v15.48H80.57a78 78 0 0 1 11.114-.398q-.195-7.647.397-15.082"/><path fill="#f8f9fa" d="M61.123 71.045a32.4 32.4 0 0 1-.397 7.144 6.95 6.95 0 0 0-3.176-2.183h-9.525q-5.062-1.492-8.137-5.755 1.944 20.665 19.25 31.951 6.34 2.306 11.907-1.588 14.527-11.492 16.074-29.966-7.147 7.936-17.662 5.358-1.842.557-2.778 2.183a40 40 0 0 1-.397-7.938q1.395-6.861 7.938-9.327a18.4 18.4 0 0 1 5.755-.992q5.83 1.192 11.312-.794.59 3.858.397 7.938-.978 19.116-13.892 33.141-4.912 4.74-11.51 6.747-7.74.465-13.891-4.366-15.502-14.04-16.868-35.125a48 48 0 0 1 0-8.732q1.242.77 2.58 1.39h11.112q10.08 1.052 11.907 10.914"/><path fill="#92a4af" d="M91.287 59.138q.036-.323.397-.397.784 4.26 0 8.335a40 40 0 0 0-.397-7.938"/><path fill="#0e334d" d="M48.422 65.488q7.049-.645 9.525 5.954a39 39 0 0 0-7.342.397q-5.059-.2-7.343-4.763a554 554 0 0 0 5.16-1.588"/><path fill="#0c314c" d="M75.014 65.488q4.639.288 9.129 1.588a9.5 9.5 0 0 1-4.366 4.167q-4.954.615-9.923.596l-.397-.397q1.582-4.16 5.557-5.954"/><path fill="#617b8b" d="M61.123 71.045q.687 3.862.198 7.938a1.7 1.7 0 0 1-.595-.794q.588-3.459.397-7.144"/><path fill="#aebbc4" d="M66.282 70.251q-.192 4.08.397 7.938a1.7 1.7 0 0 1-.595.794q-.49-4.472.198-8.732"/><path fill="#e9edef" d="M57.947 81.761q.482 1.067.596 2.382a5.9 5.9 0 0 1 2.381-1.191q2.643 1.566 5.358 0a5.1 5.1 0 0 1 2.382 1.19q.48-1.144.595-2.38 1.283 1.809-.198 3.373a11.9 11.9 0 0 1-3.573.794 5.6 5.6 0 0 0-1.786 2.58q-1.027-3.41-4.564-2.977-2.384-1.275-1.19-3.77"/><path fill="#f0f2f4" d="M59.535 90.89q2.23-.18 4.167.794 3.06-1.758 5.755.595 5.971.05.397 1.39-6.338.789-12.7 0a4.27 4.27 0 0 1-2.382-.795 29 29 0 0 1 3.572-.992q.859-.225 1.19-.992"/><path fill="#f2f4f5" d="M59.535 95.653q3.966 1.557 7.938 0l.397.397q-1.954 3.999-6.35 2.58-1.608-1.107-1.985-2.977"/></svg>
